PathFileType	4	(X/Y/Z)	/Users/itak/Documents/Research/Walk-IL/dataset/trc/00294_00010.trc
DataRate	CameraRate	NumFrames	NumMarkers	Units	OrigDataRate	OrigDataStartFrame	OrigNumFrames
100.000000	100.000000	4	56	mm	100.000000	430	688
Frame#	Time	RPSI			LPSI			L3			STRN			T10			C7			CLAV			RBAK			LBAK			LSHO			LUPA			LAEL			LAOL			LWTS			LWPS			LFRA			LHTS			RSHO			RUPA			RAEL			RAOL			RWTS			RWPS			RFRA			RIFD			RBHD			LFHD			RFHD			LBHD			RHIP			RASI			LASI			LKNE			LTHI			LANK			LTIP			LTOE			LMT1			LMT5			LHEE			RKNE			RTHI			RANK			RTIP			RTOE			RMT1			RMT5			RHEE			LHPS			RHTS			RHPS			LIFD			LHIP			*53			*54			*55			
		X1	Y1	Z1	X2	Y2	Z2	X3	Y3	Z3	X4	Y4	Z4	X5	Y5	Z5	X6	Y6	Z6	X7	Y7	Z7	X8	Y8	Z8	X9	Y9	Z9	X10	Y10	Z10	X11	Y11	Z11	X12	Y12	Z12	X13	Y13	Z13	X14	Y14	Z14	X15	Y15	Z15	X16	Y16	Z16	X17	Y17	Z17	X18	Y18	Z18	X19	Y19	Z19	X20	Y20	Z20	X21	Y21	Z21	X22	Y22	Z22	X23	Y23	Z23	X24	Y24	Z24	X25	Y25	Z25	X26	Y26	Z26	X27	Y27	Z27	X28	Y28	Z28	X29	Y29	Z29	X30	Y30	Z30	X31	Y31	Z31	X32	Y32	Z32	X33	Y33	Z33	X34	Y34	Z34	X35	Y35	Z35	X36	Y36	Z36	X37	Y37	Z37	X38	Y38	Z38	X39	Y39	Z39	X40	Y40	Z40	X41	Y41	Z41	X42	Y42	Z42	X43	Y43	Z43	X44	Y44	Z44	X45	Y45	Z45	X46	Y46	Z46	X47	Y47	Z47	X48	Y48	Z48	X49	Y49	Z49	X50	Y50	Z50	X51	Y51	Z51	X52	Y52	Z52	X53	Y53	Z53	X54	Y54	Z54	X55	Y55	Z55	X56	Y56	Z56	

431	4.3	301.4526062011719	982.470458984375	-255.9303283691406	451.3504333496094	984.5465698242188	-347.2760009765625	388.6757507324219	1050.1875	-286.6671752929688	519.5458984375	1226.82080078125	-77.18736267089844	376.8532104492188	1165.764282226562	-303.0133666992188	412.36962890625	1410.671630859375	-268.4559631347656	487.312744140625	1326.873046875	-132.6680603027344	318.3484191894531	1272.7578125	-278.4403991699219	494.6964721679688	1376.720825195312	-335.1735229492188	586.9232177734375	1384.353759765625	-283.2973327636719	628.2389526367188	1272.20654296875	-355.9201965332031	627.9535522460938	1071.854248046875	-387.1618041992188	542.2743530273438	1062.895751953125	-396.5685119628906	630.8108520507812	838.06396484375	-332.2787475585938	653.2693481445312	834.852294921875	-401.1659545898438	637.2421875	966.760986328125	-400.21484375	649.2223510742188	736.8408813476562	-345.969482421875	309.2637023925781	1382.96044921875	-131.6882629394531	250.0033264160156	1321.760864257812	-105.0842361450195	199.8608856201172	1056.739624023438	-75.56441497802734	250.6114196777344	1045.56982421875	-153.9964599609375	339.5869140625	862.9879150390625	-4.860707759857178	256.6264953613281	846.7437133789062	15.37785816192627	213.3629150390625	993.2217407226562	-40.42047500610352	372.2773132324219	685.2032470703125	32.70934295654297	365.6705627441406	1565.281494140625	-221.3470458984375	534.5828857421875	1607.464721679688	-97.66009521484375	447.7560119628906	1600.451782226562	-67.05390167236328	504.9092102050781	1566.994873046875	-267.1340637207031	268.8562927246094	920.3560791015625	-119.3433532714844	391.9537353515625	929.7269287109375	-57.35813522338867	601.765869140625	944.2264404296875	-196.3556976318359	708.135498046875	509.5981140136719	-179.3604888916016	681.134521484375	642.2896118164062	-231.8494262695312	635.4285888671875	164.8506317138672	-458.48291015625	688.3518676757812	328.8901672363281	-314.9157409667969	696.5846557617188	45.19798278808594	-293.3472900390625	622.71484375	56.82707214355469	-325.7928466796875	708.71044921875	99.12384033203125	-385.3838500976562	560.6272583007812	168.9036407470703	-461.3595275878906	405.0310668945312	457.3936157226562	-172.8274230957031	338.4545288085938	705.1688842773438	-95.59731292724609	439.8323059082031	39.61437606811523	-306.6225891113281	446.7015380859375	338.9999694824219	-200.7397155761719	638.787109375	36.11235427856445	-263.8523864746094	604.4220581054688	30.36770439147949	-324.5824584960938	523.3992919921875	31.80609703063965	-239.9198455810547	419.180908203125	33.73205947875977	-373.0549011230469	643.82666015625	746.2960205078125	-410.8066711425781	364.8185424804688	759.3682250976562	50.2949104309082	294.9835205078125	746.1583862304688	51.42943572998047	615.3356323242188	656.4669799804688	-363.3721618652344	569.5873413085938	943.1482543945312	-339.3187561035156	nan	nan	nan	nan	nan	nan	nan	nan	nan	
432	4.31	308.1174621582031	982.7706909179688	-255.249755859375	460.8812866210938	985.197265625	-341.5469970703125	395.1824951171875	1051.040161132812	-282.5987243652344	521.009033203125	1227.126098632812	-69.69902801513672	382.1021118164062	1166.82275390625	-298.5392761230469	417.7415466308594	1411.492553710938	-262.6316833496094	490.08056640625	1327.129150390625	-125.9038848876953	323.1566162109375	1274.164916992188	-274.4547424316406	500.9610290527344	1377.30615234375	-327.9424743652344	592.4287109375	1384.686645507812	-274.7007446289062	634.2500610351562	1273.081787109375	-347.74658203125	632.3636474609375	1072.925537109375	-381.2149047851562	546.7454833984375	1065.04736328125	-391.6222839355469	630.9645385742188	837.9932861328125	-330.1810302734375	654.42529296875	835.5731811523438	-398.6142578125	640.4656372070312	968.0547485351562	-395.6391296386719	647.3475341796875	736.6094360351562	-345.2691345214844	312.6339416503906	1383.933227539062	-127.3349838256836	253.1224822998047	1322.577026367188	-101.1002883911133	205.1693115234375	1057.053344726562	-68.46862030029297	256.1616821289062	1045.418212890625	-146.5381927490234	350.0441284179688	868.4573974609375	6.57416820526123	267.789794921875	850.3477783203125	26.9569149017334	220.2694091796875	994.50927734375	-32.05622863769531	387.87548828125	692.6819458007812	48.54928970336914	371.38671875	1566.0859375	-216.3436431884766	537.63427734375	1607.190063476562	-88.94682312011719	450.1509399414062	1600.4775390625	-60.26410293579102	511.4525756835938	1567.351196289062	-259.1545104980469	270.7688598632812	920.4920043945312	-120.1503982543945	391.7159423828125	930.072998046875	-53.73141860961914	606.0079345703125	945.3692626953125	-185.67724609375	711.7235717773438	510.9497375488281	-163.5869750976562	686.7199096679688	643.3241577148438	-217.4238433837891	659.6397705078125	154.6055297851562	-433.3606872558594	701.6809692382812	325.3134765625	-294.0228271484375	713.59521484375	44.52068328857422	-260.0059814453125	641.5115356445312	52.58463287353516	-297.4818115234375	729.9255981445312	94.26512145996094	-353.3800964355469	585.2325439453125	156.9164733886719	-440.9298706054688	405.4050598144531	457.3373718261719	-172.2618103027344	338.9906616210938	705.1273803710938	-95.14931488037109	439.9769897460938	39.70247268676758	-306.8196411132812	447.0376281738281	338.8423461914062	-200.1217498779297	638.8955078125	35.9890022277832	-263.8935546875	604.5423583984375	30.35160446166992	-324.6180419921875	523.4042358398438	31.82341957092285	-240.0041198730469	419.4335632324219	34.03462600708008	-373.3864440917969	643.0696411132812	747.222900390625	-409.9706115722656	378.1329956054688	766.9599609375	64.24805450439453	308.6715087890625	751.8699951171875	65.49571990966797	611.5504760742188	657.4102172851562	-364.5626831054688	579.2166137695312	944.3984985351562	-329.15087890625	nan	nan	nan	nan	nan	nan	nan	nan	nan	
433	4.32	314.9271545410156	982.960205078125	-254.3671722412109	470.366455078125	985.7115478515625	-335.6064758300781	401.5895080566406	1051.89208984375	-278.4309997558594	522.3792114257812	1227.302368164062	-62.21008682250977	387.4034423828125	1167.746337890625	-293.8890991210938	423.0030212402344	1412.205810546875	-256.6846618652344	492.7746887207031	1327.242553710938	-119.0717544555664	328.0025939941406	1275.433349609375	-270.3240966796875	507.0878295898438	1377.814575195312	-320.6012573242188	597.777099609375	1384.928588867188	-265.9947814941406	640.130859375	1273.900024414062	-339.4942932128906	636.68115234375	1073.99462890625	-375.1929321289062	551.1531372070312	1067.189453125	-386.6304321289062	631.3433837890625	838.0906982421875	-327.8955688476562	655.832763671875	836.4275512695312	-395.8443908691406	643.7447509765625	969.395751953125	-390.9352111816406	645.8699951171875	736.6332397460938	-344.3490295410156	315.9327697753906	1384.812744140625	-122.9173202514648	256.1497192382812	1323.355224609375	-97.03125	210.3001861572266	1057.40283203125	-61.44096374511719	261.6003112792969	1045.326782226562	-139.1420135498047	360.2121276855469	874.3219604492188	17.81848526000977	278.8221130371094	854.2659301757812	38.38067245483398	227.020751953125	995.9059448242188	-23.80368995666504	403.4131164550781	700.86572265625	64.17242431640625	377.0443420410156	1566.821533203125	-211.2362213134766	540.556884765625	1606.751342773438	-80.10921478271484	452.4539184570312	1600.368774414062	-53.39027404785156	517.9328002929688	1567.582275390625	-250.9997406005859	272.9239196777344	920.5848388671875	-120.7654495239258	391.5625	930.3261108398438	-50.07773590087891	610.01171875	946.3745727539062	-175.0389709472656	714.6985473632812	511.9289245605469	-148.1580810546875	691.7601318359375	644.0270385742188	-203.2106781005859	682.517822265625	144.0930328369141	-406.2411499023438	714.0350952148438	321.3766479492188	-272.2071228027344	726.9679565429688	43.7831916809082	-225.1995239257812	657.3790283203125	48.64993286132812	-267.6243896484375	748.4848022460938	89.02817535400391	-319.5014038085938	608.9151000976562	145.0497741699219	-418.7061157226562	406.1265563964844	457.1880187988281	-171.5090179443359	339.6957397460938	705.0352172851562	-94.53168487548828	440.1887512207031	39.80363082885742	-307.1175842285156	447.6030578613281	338.5633239746094	-199.3490600585938	639.0447387695312	35.84761047363281	-263.9187927246094	604.7534790039062	30.33834838867188	-324.6030883789062	523.4608154296875	31.8652458190918	-240.1120452880859	419.7729187011719	34.37310409545898	-373.8513488769531	642.7687377929688	748.3792724609375	-408.9001159667969	391.2972717285156	775.1484985351562	78.00819396972656	322.2599182128906	758.0867309570312	79.39923858642578	608.3724365234375	658.6119995117188	-365.4991760253906	588.7026977539062	945.4420166015625	-318.9127197265625	nan	nan	nan	nan	nan	nan	nan	nan	nan	
434	4.33	321.8418273925781	983.0376586914062	-253.2276458740234	479.7466430664062	986.075439453125	-329.4719848632812	407.9020690917969	1052.753662109375	-274.1300048828125	523.6723022460938	1227.338623046875	-54.72904586791992	392.7824096679688	1168.50390625	-289.044921875	428.1515197753906	1412.777709960938	-250.6135559082031	495.4017944335938	1327.210205078125	-112.1761932373047	332.8934326171875	1276.519775390625	-266.0482788085938	513.0673828125	1378.223876953125	-313.158447265625	602.9684448242188	1385.067016601562	-257.1972045898438	645.8746948242188	1274.644409179688	-331.1749572753906	640.9130249023438	1075.046875	-369.0801696777344	555.4928588867188	1069.29833984375	-381.5540771484375	631.9844360351562	838.3219604492188	-325.3777770996094	657.4877319335938	837.374267578125	-392.8405456542969	647.0744018554688	970.7424926757812	-386.0862426757812	644.8333740234375	736.8598022460938	-343.1905212402344	319.152587890625	1385.554931640625	-118.4385986328125	259.0848083496094	1324.040893554688	-92.8958740234375	215.2444915771484	1057.732299804688	-54.46696090698242	266.8451843261719	1045.232177734375	-131.8331756591797	370.0805358886719	880.5256958007812	28.84022521972656	289.6874084472656	858.4786987304688	49.66779327392578	233.6139068603516	997.359130859375	-15.64560508728027	418.8236999511719	709.6895141601562	79.51080322265625	382.6351318359375	1567.462524414062	-206.00732421875	543.360595703125	1606.13330078125	-71.16681671142578	454.6781005859375	1600.10546875	-46.43664169311523	524.3285522460938	1567.66552734375	-242.6779479980469	275.315185546875	920.6132202148438	-121.1536712646484	391.534912109375	930.459228515625	-46.36404418945312	613.7908935546875	947.2091674804688	-164.4915924072266	717.1441040039062	512.5601196289062	-133.0661468505859	696.3073120117188	644.4164428710938	-189.2328643798828	703.868408203125	133.4735260009766	-377.1656799316406	725.3612670898438	317.1825256347656	-249.4693298339844	736.8433227539062	43.09737396240234	-189.3040313720703	670.3721923828125	45.06785202026367	-236.4713439941406	764.349365234375	83.58631134033203	-283.9612731933594	631.4625854492188	133.3833770751953	-394.6654968261719	407.1841430664062	456.9295043945312	-170.5491485595703	340.5765991210938	704.8665771484375	-93.71945190429688	440.4812622070312	39.92221832275391	-307.5455932617188	448.4189758300781	338.1428833007812	-198.4193572998047	639.2423095703125	35.70005798339844	-263.8977966308594	605.0623168945312	30.33228492736816	-324.5368041992188	523.581787109375	31.94550895690918	-240.2474060058594	420.2194213867188	34.74606323242188	-374.4696350097656	642.9490356445312	749.7141723632812	-407.5749816894531	404.2754211425781	783.86376953125	91.50971221923828	335.7422485351562	764.7750854492188	93.12734985351562	605.884765625	659.9981689453125	-366.1518859863281	597.90234375	946.2387084960938	-308.7118225097656	nan	nan	nan	nan	nan	nan	nan	nan	nan	
